<svg viewBox="0 0 613.21 567.66" xmlns="http://www.w3.org/2000/svg"><g opacity=".6"><path d="m219.22 311.62c21.28 0 40-10 50.74-25.11l-.14 225.49c0 19.15-14.36 45-50.76 45s-50.71-25.89-50.7-45l.15-225.44c10.72 15.02 29.42 25.05 50.71 25.06z" fill="#edeef0"/><path d="m155.33 264.43-.16 245.12c0 32 28.64 58.09 63.88 58.11s63.93-26 63.95-58l.16-245.12h-24.85l-.16 245.11c0 19.57-17.55 35.48-39.08 35.47s-39-16-39-35.52l.16-245.11h-24.86z" fill="#f4bc08"/><path d="m219.22 311.62a63.76 63.76 0 0 0 39.07-13v-34.09h24.85l-.14 245.1c0 32-28.71 58.06-64 58z" fill="#5b5b5f" opacity=".3"/></g><g opacity=".6"><path d="m64 409.07c21.28 0 40-6.18 50.73-15.54l-.09 139.64c-.01 11.83-14.35 27.83-50.74 27.83s-50.72-16-50.71-27.9l.09-139.63c10.72 9.37 29.43 15.59 50.72 15.6z" fill="#edeef0"/><path d="m.1 379.82-.1 151.83c0 19.84 28.65 36 63.89 36s63.93-16.09 63.94-35.93l.1-151.82h-24.86l-.07 151.82c0 12.12-17.53 22-39.07 21.95s-39-9.88-39-22l.07-151.83h-24.85z" fill="#4a696f"/><path d="m64 409.07c14.9 0 28.53-3 39.06-8.06v-21.12h24.86l-.1 151.82c0 19.84-28.69 36-63.94 35.93z" fill="#5b5b5f" opacity=".3"/></g><g opacity=".6"><path d="m383.61 289.05a60.42 60.42 0 0 0 50.74-27.33l-.16 245.28c0 20.83-14.36 48.95-50.76 48.93s-50.71-28.16-50.69-49l.16-245.31a60.43 60.43 0 0 0 50.71 27.43z" fill="#edeef0"/><path d="m319.72 237.7-.17 266.73c0 34.84 28.63 63.21 63.87 63.23s63.94-28.3 64-63.15l.17-266.73h-24.85l-.18 266.73c0 21.3-17.54 38.61-39.08 38.6s-39.05-17.35-39-38.65l.17-266.73z" fill="#56c225"/><path d="m383.61 289.05a60.45 60.45 0 0 0 39.06-14.19v-37.1h24.86l-.18 266.73c0 34.85-28.71 63.18-63.95 63.15z" fill="#5b5b5f" opacity=".3"/></g><g opacity=".6"><path d="m549.25 165.68c21.28 0 40-15.7 50.75-39.44l-.23 353.94c0 30.06-14.38 70.63-50.77 70.61s-50.7-40.62-50.68-70.68l.23-353.94c10.72 23.76 29.45 39.5 50.7 39.51z" fill="#edeef0"/><path d="m485.38 91.6-.25 384.84c0 50.28 28.61 91.2 63.86 91.22s63.94-40.86 64-91.13l.25-384.84h-24.86l-.25 384.84c0 30.72-17.55 55.71-39.09 55.69s-39-25-39-55.74l.25-384.84h-24.91z" fill="#ff4949"/><path d="m549.25 165.68c14.9 0 28.54-7.71 39.07-20.49v-53.52h24.86l-.18 384.85c0 50.28-28.73 91.17-64 91.14z" fill="#5b5b5f" opacity=".3"/></g><path d="m247.08 95.15a145.69 145.69 0 0 1 -73 48.21 17.74 17.74 0 0 0 8.21 34.48c.54-.11 1.08-.23 1.61-.39a182.07 182.07 0 0 0 41.49-17.74z" fill="#00ccf2"/><path d="m297.56 204.25 19.32-55.17a114.67 114.67 0 0 0 17.51 1.37 114 114 0 0 0 72.88-26.35l2.38-2a18 18 0 0 0 3-24.75 17.73 17.73 0 0 0 -25.38-2.81l-2.71 2.25a78.45 78.45 0 0 1 -14.85 9.73c-20.45 10.32-45 5-60.6-11.81a41.83 41.83 0 0 0 -30.8-13.43 42 42 0 0 0 -40.69 31.47l-23.8 91.48z" fill="#00ccf2"/><path d="m213.86 204.25-69.92 183.34a19.78 19.78 0 0 0 15.83 26.65l.46.06a20.22 20.22 0 0 0 20.85-10.9c19.78-39.21 78.15-154.62 78.15-154.62h23.71l-12.09 76a18.52 18.52 0 0 0 18.29 21.43 18.52 18.52 0 0 0 17.86-13.55l22.71-81.66a36.89 36.89 0 0 0 -35.54-46.77h-80.31z" fill="#ffbe52"/><path d="m543.42 222.41-86.18 17.35 18.73 18.73-59.9 59.9-42.49-42.5-197.43 197.43 28.68 28.68 168.75-168.75 42.49 42.5 88.58-88.58 21.42 21.42z" fill="#ff6371"/><path d="m543.42 222.41-86.18 17.35 18.73 18.73-59.9 59.9-42.49-42.5-197.43 197.43 28.68 28.68 168.75-168.75 42.49 42.5 88.58-88.58 21.42 21.42z" fill="#ff6371"/><circle cx="304.29" cy="45.65" fill="#fed2a4" r="35.65"/><path d="m129.21 279.29-73.9-73.9a13 13 0 0 1 0-18.39l53.69-53.64a13 13 0 0 1 18.38 0l73.9 73.9a13 13 0 0 1 0 18.38l-53.64 53.65a13 13 0 0 1 -18.43 0z" fill="#ff9357"/><path d="m117.33 217.89-3.06-3.06a13.75 13.75 0 0 1 0-19.45l12.78-12.78 22.51 22.5-12.78 12.79a13.75 13.75 0 0 1 -19.45 0z" fill="#fff"/><path d="m550.49 215.34a10 10 0 0 0 -9-2.73l-86.22 17.39a10 10 0 0 0 -5.1 16.88l11.66 11.66-45.76 45.75-35.42-35.42a10 10 0 0 0 -14.15 0l-43.5 43.42 16.3-58.59a46.93 46.93 0 0 0 -28.72-56.5l13-37.23c3.59.31 7.18.47 10.73.47a124.32 124.32 0 0 0 79.27-28.65l2.38-2a27.86 27.86 0 0 0 4.57-38.55 27.73 27.73 0 0 0 -39.69-4.39l-2.71 2.25a69.27 69.27 0 0 1 -13 8.5c-15.42 7.77-34.68 4.31-47.47-8.35a45.7 45.7 0 1 0 -50.4-16.8 52.13 52.13 0 0 0 -26.76 15.18 9.65 9.65 0 0 0 -1.18 1.21 135.65 135.65 0 0 1 -68 44.91 27.66 27.66 0 0 0 -16.46 13l-20.5-20.49a23 23 0 0 0 -32.52 0l-26.78 26.85-26.82 26.82a23 23 0 0 0 0 32.53l73.9 73.9a23 23 0 0 0 32.52 0l27.77-27.77-13.16 34.53a10 10 0 1 0 18.73 7.12l32.8-86h73.42a26.89 26.89 0 0 1 25.91 34.09l-22.77 81.67a8.55 8.55 0 0 1 -8.22 6.24 8.53 8.53 0 0 1 -8.42-9.86l12.09-76a10 10 0 0 0 -9.87-11.57h-23.71a10 10 0 0 0 -8.92 5.49c-.59 1.15-58.6 115.86-78.15 154.62a10.26 10.26 0 0 1 -10.58 5.5l-.47-.06a9.78 9.78 0 0 1 -7.83-13.18l6.16-16.18a10 10 0 1 0 -18.68-7.13l-6.16 16.13a29.78 29.78 0 0 0 23.82 40.12l.47.06a29.84 29.84 0 0 0 4.1.28 30.26 30.26 0 0 0 27-16.59c17.08-33.86 63.52-125.7 75.37-149.12h5.84l-10.2 64.47a28.52 28.52 0 0 0 19.5 31.64l-111.42 111.39a10 10 0 0 0 0 14.14l28.68 28.68a10 10 0 0 0 14.14 0l55.1-55.14a10 10 0 1 0 -14.15-14.14l-48.06 48.07-14.54-14.54 183.33-183.32 35.42 35.46a10 10 0 0 0 14.14 0l59.9-59.9a10 10 0 0 0 0-14.15l-5.54-5.53 53.15-10.7-10.65 53.15-8.23-8.23a10 10 0 0 0 -14.14 0l-81.51 81.51-35.42-35.43a10 10 0 0 0 -14.15 0l-57 57.05a10 10 0 1 0 14.14 14.14l50-50 35.31 35.45a10 10 0 0 0 14.14 0l81.51-81.51 14.35 14.35a10 10 0 0 0 16.88-5.1l17.34-86.17a10 10 0 0 0 -2.73-9.05zm-246.2-195.34a25.65 25.65 0 1 1 -25.65 25.65 25.69 25.69 0 0 1 25.65-25.65zm-98.94 177.23-12.17-12.16q8.67-2.83 17-6.46zm-33.75-34.68a7.75 7.75 0 0 1 5.3-9.58 156 156 0 0 0 45.58-21.6l-5.64 21.71a172.75 172.75 0 0 1 -35.66 14.77l-.71.17a7.71 7.71 0 0 1 -5.24-.9l-2.93-2.93a7.71 7.71 0 0 1 -.7-1.64zm-55.6-22.12a3 3 0 0 1 4.24 0l36.45 36.45a27.57 27.57 0 0 0 6 6l31.47 31.47a3 3 0 0 1 0 4.24l-19.75 19.75-22-22 4.18-4.19a10 10 0 0 0 0-14.14l-22.51-22.51a10 10 0 0 0 -14.14 0l-4.18 4.19-19.49-19.51zm13.69 70.39a3.75 3.75 0 0 1 -5.31 0l-3.06-3.06a3.75 3.75 0 0 1 0-5.31l5.71-5.71 8.37 8.36zm10.81 61.4a3 3 0 0 1 -4.24 0l-73.9-73.9a3 3 0 0 1 0-4.25l19.75-19.75 20.46 20.47a23.77 23.77 0 0 0 4.61 27.11l3.06 3.06a23.77 23.77 0 0 0 27.11 4.61l22.9 22.9zm142.83-78h-56.54l20.54-79a32.06 32.06 0 0 1 31-24 31.69 31.69 0 0 1 23.47 10.24c18.79 20.24 48.58 26 72.43 13.93a88.44 88.44 0 0 0 16.74-11l2.71-2.25a7.73 7.73 0 0 1 11.08 1.24 8 8 0 0 1 -1.52 10.94l-2.38 2a103.76 103.76 0 0 1 -82.47 22.79 10 10 0 0 0 -11 6.57l-17 48.48z"/><path d="m288.44 408.77a10 10 0 1 0 7.06 2.93 10.08 10.08 0 0 0 -7.06-2.93z"/><path d="m164.34 344.11a10 10 0 1 0 -7.08-2.93 10.08 10.08 0 0 0 7.08 2.93z"/></svg>